<svg id="SvgjsSvg1001" width="288" height="288" xmlns="http://www.w3.org/2000/svg" version="1.1" xmlns:xlink="http://www.w3.org/1999/xlink" xmlns:svgjs="http://svgjs.com/svgjs"><defs id="SvgjsDefs1002"></defs><g id="SvgjsG1008"><svg xmlns="http://www.w3.org/2000/svg" fill="none" viewBox="0 0 128 128" width="288" height="288"><path stroke="#2e5946" stroke-linecap="round" stroke-width="6" d="M28.0667 39.625C28.0667 28.2341 36.1106 19 46.0333 19 55.956 19 64 28.2341 64 39.625V40.5M28.0667 80.566V88.375C28.0667 99.7659 36.1106 109 46.0333 109 55.956 109 64 99.7659 64 88.375V87.5M33.5111 81.5C23.2877 81.5 15 71.986 15 60.25 15 48.5139 23.2877 39 33.5111 39M99.9333 39.625C99.9333 28.2341 91.8894 19 81.9667 19 72.044 19 64 28.2341 64 39.625V41M99.9333 80.566V88.375C99.9333 99.7659 91.8894 109 81.9667 109 72.044 109 64 99.7659 64 88.375V87M94.4889 81.5C104.712 81.5 113 71.986 113 60.25 113 48.5139 104.712 39 94.4889 39M48 77L58.5887 51.1902C58.6358 51.0751 58.7479 51 58.8722 51V51C58.9993 51 59.1133 51.0785 59.1586 51.1973L69 77M53 70H63M79 77V51" class="colorStroke1B1B1B svgStroke"></path></svg></g></svg>