<svg xmlns="http://www.w3.org/2000/svg" xml:space="preserve" style="enable-background:new 0 0 47.5 47.5" viewBox="0 0 47.5 47.5" id="hibiscus">
  <defs>
    <clipPath id="a">
      <path d="M0 38h38V0H0v38Z"></path>
    </clipPath>
  </defs>
  <g clip-path="url(#a)" transform="matrix(1.25 0 0 -1.25 0 47.5)">
    <path d="M0 0c6.509-6.506 17.254 7.669 15.72 7.669C8.052 7.669-6.506 6.508 0 0" style="fill:#77b255;fill-opacity:1;fill-rule:nonzero;stroke:none" transform="translate(20.602 4.67)"></path>
    <path d="M0 0c-6.032-6.032-15.715 7.109-14.292 7.109C-7.182 7.109 6.035 6.034 0 0" style="fill:#77b255;fill-opacity:1;fill-rule:nonzero;stroke:none" transform="translate(16.645 3.628)"></path>
    <path d="M0 0c-.052.901-.175 2.585-1.398 4.227-1.161 1.549-3.805 3.371-5.535 2.585.516 1.676-.263 4.125-1.191 5.49-1.179 1.737-4.262 3.843-8.146 3.027-1.754-.37-4.18-2.036-4.632-3.865-1.18 1.472-4.221 1.675-6.015 1.222-2.025-.511-3.153-1.777-3.739-2.461l.004.005-.03-.034-.027-.033c-.583-.689-1.656-1.994-1.847-4.074-.193-2.146.75-5.832 3.026-6.042.149-.014.323-.031.513-.051-2.27-.098-3.572-3.654-3.594-5.8-.023-2.101.926-3.506 1.443-4.243l-.003.004a.23.23 0 0 0 .025-.036c.007-.011.02-.024.026-.036.523-.733 1.525-2.094 3.515-2.777 1.958-.669 5.553-.656 6.566 1.237-.273-2.244 3.028-4.077 5.17-4.439 2.115-.358 3.71.358 4.55.753l-.005-.003c.012.008.028.015.041.021l.041.019c.838.401 2.397 1.178 3.462 3.04.728 1.283 1.269 3.404.951 5.015l.192-.127C-4.811-8.6-2.007-6.257-.932-4.438.111-2.675 0-.012 0 0" style="fill:#f4abba;fill-opacity:1;fill-rule:nonzero;stroke:none" transform="translate(35.613 21.246)"></path>
    <path d="M0 0c-1.786.997-4.874.434-6.792-.308A3.878 3.878 0 0 1-7.843.888C-6.45 2.495-4.316 5.481-6.375 7.25c-2.191 1.883-3.74-2.154-3.575-5.605-.068.003-.132.02-.2.02-1.02 0-1.94-.402-2.632-1.045-1.402 2.277-3.943 4.244-5.314 2.392-1.482-2.002 1.149-3.153 4.222-4.199a3.862 3.862 0 0 1-.154-1.026c0-.456.093-.887.237-1.293-2.54-.733-6.236-2.718-4.209-4.911 2.121-2.295 4.471 1.239 5.603 3.053a3.847 3.847 0 0 1 2.247-.727c.224 0 .441.029.655.066-.109-4.802 1.443-7.07 4.036-5.892 2.295 1.043-.137 5.299-1.781 7.166.316.362.564.779.729 1.241C.497-6.054 2.078-1.159 0 0" style="fill:#ea596e;fill-opacity:1;fill-rule:nonzero;stroke:none" transform="translate(28.542 23.459)"></path>
    <path d="M0 0c-.679 0-.668.562-.832 1.25-.532 2.234-2.381 6.309-4.601 9.163a1.5 1.5 0 0 0 2.369 1.842C-.625 9.119.199 4.851.918 1.834 1.109 1.028 1.155.233.349.042A1.5 1.5 0 0 0 0 0" style="fill:#be1931;fill-opacity:1;fill-rule:nonzero;stroke:none" transform="translate(18.707 19.541)"></path>
    <path d="M0 0c.498-.684.079-1.838-.936-2.578l-.475-.346c-1.016-.74-2.242-.785-2.741-.101L-6.933.791c-.498.684-.079 1.838.937 2.578l.475.346c1.015.74 2.242.785 2.74.101L0 0Z" style="fill:#ffcc4d;fill-opacity:1;fill-rule:nonzero;stroke:none" transform="translate(16.904 31.673)"></path>
  </g>
</svg>
