<svg width="682.67" height="682.67" xmlns="http://www.w3.org/2000/svg"><path d="M0 .02h682.65v682.65H0z" fill="none"/><path d="M641.184 254.797c7.348-7.681 13.702-16.429 18.889-26 31.203-57.95 4.981-209.047-10.963-219.367-12.889-8.348-102.405 21.327-152.703 63.617-46.276-30.407-98.96-48.363-155.09-48.363-55.96 0-108.44 17.854-154.609 48.079C136.32 30.616 47.205 1.103 34.365 9.43 18.422 19.748-7.782 170.853 23.403 228.798c5.148 9.567 11.388 17.955 18.314 25.37C20.309 306.004 7.995 362.674 7.995 420.324c0 202.915 148.33 254.353 333.325 254.353 184.982 0 333.325-51.43 333.325-254.353 0-57.423-12.24-113.87-33.462-165.53z" fill="#f4abba icc-color(sRGB2014, 0.95684814, 0.670578, 0.72940063)"/><path d="M144.996 91.53C104.886 65.154 63.48 48.265 56.11 53.153c-10.555 6.989-20.055 103.956-6.5 171.89 23.375-51.333 55.834-96.764 95.387-133.517zm488.042 133.516c13.555-67.952 4.055-164.903-6.5-171.902-7.37-4.888-48.776 12.022-88.887 38.396 39.572 36.728 72.034 82.165 95.387 133.517zM526.503 448.454c0 93.327-57.35 194.995-185.182 194.995-127.849 0-185.182-101.668-185.182-194.995S213.47 331.457 341.32 331.457c127.83 0 185.182 23.67 185.182 116.997z" fill="#ea596e icc-color(sRGB2014, 0.91763306, 0.34901428, 0.43136597)"/><path d="M285.766 479.116c0 38.625-6.296 49.919-27.776 49.919-21.481 0-27.777-11.294-27.777-49.919 0-38.604 6.296-49.897 27.777-49.897 21.48 0 27.776 11.294 27.776 49.897zm166.663 0c0 38.625-6.296 49.919-27.777 49.919-21.48 0-27.777-11.294-27.777-49.919 0-38.604 6.297-49.897 27.777-49.897s27.777 11.294 27.777 49.897z" fill="#662113 icc-color(sRGB2014, 0.3999939, 0.12940979, 0.07450867)"/><path d="M174.662 321.033c-.002 11.036-3.907 21.618-10.857 29.42-6.949 7.8-16.373 12.182-26.198 12.18-9.825-.003-19.246-4.39-26.192-12.195-6.946-7.805-10.847-18.39-10.844-29.426.001-5.464.96-10.875 2.823-15.922s4.593-9.634 8.034-13.497 7.525-6.927 12.02-9.017c4.495-2.09 9.313-3.165 14.177-3.163 4.865.001 9.682 1.079 14.176 3.171 4.494 2.092 8.577 5.158 12.016 9.023 3.44 3.865 6.167 8.453 8.028 13.501a46.096 46.096 0 0 1 2.816 15.924zm407.403 0a46.094 46.094 0 0 1-2.823 15.923c-1.863 5.047-4.593 9.634-8.033 13.497-3.441 3.862-7.526 6.926-12.02 9.016-4.496 2.09-9.313 3.165-14.178 3.163-4.865-.001-9.682-1.079-14.175-3.17-4.494-2.093-8.578-5.16-12.017-9.024-3.439-3.865-6.167-8.453-8.027-13.501a46.096 46.096 0 0 1-2.817-15.924c.003-11.035 3.908-21.618 10.857-29.419 6.95-7.801 16.373-12.183 26.198-12.18 9.825.003 19.247 4.39 26.193 12.195s10.846 18.39 10.844 29.426z" fill="#292f33 icc-color(sRGB2014, 0.16078186, 0.18431091, 0.19999695)"/></svg>